<?xml version="1.0" standalone="no"?><!DOCTYPE svg PUBLIC "-//W3C//DTD SVG 1.1//EN" "http://www.w3.org/Graphics/SVG/1.1/DTD/svg11.dtd"><svg t="1710755134361" class="icon" viewBox="0 0 1024 1024" version="1.1" xmlns="http://www.w3.org/2000/svg" p-id="5050" xmlns:xlink="http://www.w3.org/1999/xlink" width="200" height="200"><path d="M60.235294 542.117647c0 132.879059 103.062588 240.941176 229.677176 240.941176l0 60.235294c-159.864471 0-289.912471-135.107765-289.912471-301.176471s130.048-301.176471 289.912471-301.176471l254.735059 0-99.147294-99.147294 42.586353-42.586353 171.911529 171.851294-171.851294 171.911529-42.646588-42.646588 99.207529-99.147294-254.795294 0c-126.614588 0-229.677176 108.062118-229.677176 240.941176zM734.087529 240.941176l0 60.235294c126.614588 0 229.677176 108.062118 229.677176 240.941176s-103.062588 240.941176-229.677176 240.941176l-254.795294 0 99.147294-99.147294-42.586353-42.586353-171.851294 171.851294 171.911529 171.911529 42.586353-42.586353-99.207529-99.207529 254.735059 0c159.924706 0 289.972706-135.107765 289.972706-301.176471s-130.048-301.176471-289.912471-301.176471z" fill="#000000" p-id="5051"></path></svg>