<?xml version="1.0" standalone="no"?><!DOCTYPE svg PUBLIC "-//W3C//DTD SVG 1.1//EN" "http://www.w3.org/Graphics/SVG/1.1/DTD/svg11.dtd"><svg t="1710755248669" class="icon" viewBox="0 0 1024 1024" version="1.1" xmlns="http://www.w3.org/2000/svg" p-id="4825" xmlns:xlink="http://www.w3.org/1999/xlink" width="200" height="200"><path d="M572.952381 746.057143h-63.390476V482.742857c-19.504762 14.628571-43.885714 26.819048-70.704762 34.133333l-4.876191 2.438096v-63.390476h2.438096c14.628571-2.438095 29.257143-9.752381 46.323809-19.504762s29.257143-19.504762 41.447619-31.695238l2.438095-2.438096h48.761905v343.771429z" fill="#000000" p-id="4826"></path><path d="M665.6 926.47619H358.4C160.914286 926.47619 0 770.438095 0 577.828571S160.914286 229.180952 358.4 229.180952h436.419048c17.066667 0 31.695238 14.628571 31.695238 31.695238 0 17.066667-14.628571 31.695238-31.695238 31.695239H358.4c-160.914286 0-292.571429 126.780952-292.571429 285.257142s131.657143 285.257143 295.009524 285.257143h304.761905c163.352381 0 295.009524-129.219048 295.009524-285.257143 0-17.066667 14.628571-31.695238 31.695238-31.695238 17.066667 0 31.695238 14.628571 31.695238 31.695238C1024 770.438095 863.085714 926.47619 665.6 926.47619" fill="#000000" p-id="4827"></path><path d="M804.571429 275.504762c-7.314286 0-17.066667-2.438095-21.942858-7.314286l-153.6-129.219047c-14.628571-12.190476-17.066667-34.133333-4.87619-48.761905 12.190476-17.066667 34.133333-17.066667 48.761905-4.876191L828.952381 214.552381c14.628571 12.190476 17.066667 34.133333 4.87619 48.761905-9.752381 7.314286-19.504762 12.190476-29.257142 12.190476" fill="#000000" p-id="4828"></path></svg>